# xmcd
#
# Track frame offsets:
#	150
#	22149
#	37911
#	55573
#	73544
#	91159
#	108396
#	121197
#	133957
#	152035
#	164643
#	183508
#	200698
#	220048
#	236133
#	247649
#	261791
#	277424
#	291070
#	305061
#	318031
#	331346
#
# Disc length: 4705 seconds
#
# Revision: 0
# Processed by: cddbd v1.5.2PL0 Copyright (c) Steve Scherf et al.
# Submitted via: audiograbber 1.83.01
#
DISCID=43125f16
DTITLE=Various Artist - Random Acts Of Country Volume 2 CD 2
DYEAR=2014
DGENRE=Country
TTITLE0=Brad Paisley - Alcohol
TTITLE1=Brooks and Dunn - My Maria
TTITLE2=Rodney Atkins - Watching You
TTITLE3=Wynonna - No One Else On Earth
TTITLE4=Phil Vassar - Just Another Day In Paradise
TTITLE5=Sara Evans - Suds In The Bucket
TTITLE6=Patty Loveless - I Try To Think About Elvis
TTITLE7=O' Shea - Old School
TTITLE8=Pam Tillis - Maybe It Was Memphis
TTITLE9=Joe Diffie - If The Devil danced (In Empty Pockets) 
TTITLE10=Johnny Cash - Sunday Morning Coming Down
TTITLE11=Rodney Crowell - Lovin'  All Night
TTITLE12=Ronnie Milsap - Lost In The Fifties Tonight (In The Still Of The Night
TTITLE12=)
TTITLE13=Charley Pride - Roll On Mississippi
TTITLE14=Dolly Parton - Why'd You Come In Here Lookin'  Like That
TTITLE15=George Jones - The Grand Tour
TTITLE16=Kris Kristofferson - Why Me
TTITLE17=Merle Haggard - Big City
TTITLE18=Mickey Gilley - You Don't Know Me
TTITLE19=Elvis Presley - Take Good Care Of Her
TTITLE20=Tanya Tucker - Delta Dawn
TTITLE21=Willie Nelson - City Of New Orleans
EXTD=
EXTT0=
EXTT1=
EXTT2=
EXTT3=
EXTT4=
EXTT5=
EXTT6=
EXTT7=
EXTT8=
EXTT9=
EXTT10=
EXTT11=
EXTT12=
EXTT13=
EXTT14=
EXTT15=
EXTT16=
EXTT17=
EXTT18=
EXTT19=
EXTT20=
EXTT21=
PLAYORDER=
